<mxfile host="65bd71144e" scale="2" border="0">
    <diagram id="HJPN8NNFklnFT6mf5z9x" name="Page-1">
        <mxGraphModel dx="83" dy="352" grid="1" gridSize="10" guides="1" tooltips="1" connect="1" arrows="1" fold="1" page="0" pageScale="1" pageWidth="850" pageHeight="1100" background="none" math="0" shadow="0">
            <root>
                <mxCell id="0"/>
                <mxCell id="1" style="locked=1;" parent="0" visible="0"/>
                <mxCell id="8" value="" style="triangle;whiteSpace=wrap;html=1;strokeColor=none;fillColor=#00FF00;fontColor=#808080;fillStyle=auto;rotation=-180;fontSize=10;" parent="1" vertex="1">
                    <mxGeometry x="320" y="300" width="80" height="120" as="geometry"/>
                </mxCell>
                <mxCell id="3" value="" style="triangle;whiteSpace=wrap;html=1;strokeColor=none;fillColor=#FF0000;fontColor=#808080;fillStyle=auto;fontSize=10;" parent="1" vertex="1">
                    <mxGeometry x="400" y="300" width="80" height="120" as="geometry"/>
                </mxCell>
                <mxCell id="2" value="" style="endArrow=none;html=1;startArrow=oval;startFill=1;endFill=0;rounded=0;strokeColor=#808080;targetPerimeterSpacing=0;sourcePerimeterSpacing=0;startSize=5;endSize=5;fontSize=10;fontColor=#808080;" parent="1" edge="1">
                    <mxGeometry width="50" height="50" relative="1" as="geometry">
                        <mxPoint x="320" y="360" as="sourcePoint"/>
                        <mxPoint x="400" y="300" as="targetPoint"/>
                    </mxGeometry>
                </mxCell>
                <mxCell id="4" value="" style="endArrow=none;html=1;startArrow=oval;startFill=1;endFill=0;rounded=0;strokeColor=#808080;targetPerimeterSpacing=0;sourcePerimeterSpacing=0;startSize=5;endSize=5;fontSize=10;fontColor=#808080;" parent="1" edge="1">
                    <mxGeometry width="50" height="50" relative="1" as="geometry">
                        <mxPoint x="400" y="300" as="sourcePoint"/>
                        <mxPoint x="480" y="360" as="targetPoint"/>
                    </mxGeometry>
                </mxCell>
                <mxCell id="5" value="" style="endArrow=none;html=1;startArrow=oval;startFill=1;endFill=0;rounded=0;strokeColor=#808080;targetPerimeterSpacing=0;sourcePerimeterSpacing=0;startSize=5;endSize=5;fontSize=10;fontColor=#808080;" parent="1" edge="1">
                    <mxGeometry width="50" height="50" relative="1" as="geometry">
                        <mxPoint x="480" y="360" as="sourcePoint"/>
                        <mxPoint x="400" y="420" as="targetPoint"/>
                    </mxGeometry>
                </mxCell>
                <mxCell id="6" value="" style="endArrow=none;html=1;startArrow=oval;startFill=1;endFill=0;rounded=0;strokeColor=#808080;targetPerimeterSpacing=0;sourcePerimeterSpacing=0;startSize=5;endSize=5;fontSize=10;fontColor=#808080;" parent="1" edge="1">
                    <mxGeometry width="50" height="50" relative="1" as="geometry">
                        <mxPoint x="400" y="420" as="sourcePoint"/>
                        <mxPoint x="320" y="360" as="targetPoint"/>
                    </mxGeometry>
                </mxCell>
                <mxCell id="7" value="" style="endArrow=none;html=1;startArrow=none;startFill=0;endFill=0;rounded=0;strokeColor=#808080;fontSize=10;fontColor=#808080;" parent="1" edge="1">
                    <mxGeometry width="50" height="50" relative="1" as="geometry">
                        <mxPoint x="400" y="420" as="sourcePoint"/>
                        <mxPoint x="400" y="300" as="targetPoint"/>
                    </mxGeometry>
                </mxCell>
                <mxCell id="10" value="V&lt;sub style=&quot;&quot;&gt;&lt;font style=&quot;font-size: 8px;&quot;&gt;1&lt;/font&gt;&lt;/sub&gt;" style="edgeLabel;html=1;align=center;verticalAlign=top;resizable=0;points=[];labelBackgroundColor=none;fontColor=#808080;fontSize=10;" parent="1" vertex="1" connectable="0">
                    <mxGeometry x="400.0036015948391" y="420.00180079741955" as="geometry"/>
                </mxCell>
                <mxCell id="11" value="V&lt;sub style=&quot;&quot;&gt;&lt;font style=&quot;font-size: 8px;&quot;&gt;0&lt;/font&gt;&lt;/sub&gt;" style="edgeLabel;html=1;align=right;verticalAlign=middle;resizable=0;points=[];labelBackgroundColor=none;fontColor=#808080;labelPosition=left;verticalLabelPosition=middle;fontSize=10;" parent="1" vertex="1" connectable="0">
                    <mxGeometry x="310.0036015948391" y="360.00180079741955" as="geometry"/>
                </mxCell>
                <mxCell id="12" value="V&lt;sub style=&quot;&quot;&gt;&lt;font style=&quot;font-size: 8px;&quot;&gt;2&lt;/font&gt;&lt;/sub&gt;" style="edgeLabel;html=1;align=center;verticalAlign=bottom;resizable=0;points=[];labelBackgroundColor=none;fontColor=#808080;fontSize=10;" parent="1" vertex="1" connectable="0">
                    <mxGeometry x="400.0036015948391" y="300.00180079741955" as="geometry"/>
                </mxCell>
                <mxCell id="13" value="V&lt;sub style=&quot;&quot;&gt;&lt;font style=&quot;font-size: 8px;&quot;&gt;3&lt;/font&gt;&lt;/sub&gt;" style="edgeLabel;html=1;align=left;verticalAlign=middle;resizable=0;points=[];labelBackgroundColor=none;fontColor=#808080;fontSize=10;" parent="1" vertex="1" connectable="0">
                    <mxGeometry x="490.0036015948391" y="360.00180079741955" as="geometry"/>
                </mxCell>
                <mxCell id="14" value="F&lt;sub style=&quot;&quot;&gt;&lt;font style=&quot;font-size: 8px;&quot;&gt;0&lt;/font&gt;&lt;/sub&gt;" style="edgeLabel;html=1;align=center;verticalAlign=middle;resizable=0;points=[];labelBackgroundColor=none;fontColor=#808080;fontSize=10;" parent="1" vertex="1" connectable="0">
                    <mxGeometry x="370.0036015948391" y="360.00180079741955" as="geometry">
                        <mxPoint y="1" as="offset"/>
                    </mxGeometry>
                </mxCell>
                <mxCell id="15" value="F&lt;sub style=&quot;&quot;&gt;&lt;font style=&quot;font-size: 8px;&quot;&gt;1&lt;/font&gt;&lt;/sub&gt;" style="edgeLabel;html=1;align=center;verticalAlign=middle;resizable=0;points=[];labelBackgroundColor=none;fontColor=#808080;fontSize=10;" parent="1" vertex="1" connectable="0">
                    <mxGeometry x="430.0036015948391" y="360.00180079741955" as="geometry">
                        <mxPoint y="1" as="offset"/>
                    </mxGeometry>
                </mxCell>
                <mxCell id="16" value="&lt;font style=&quot;font-size: 10px;&quot;&gt;E&lt;/font&gt;&lt;sub style=&quot;&quot;&gt;&lt;font style=&quot;font-size: 8px;&quot;&gt;1&lt;/font&gt;&lt;/sub&gt;" style="edgeLabel;html=1;align=left;verticalAlign=middle;resizable=0;points=[];labelBackgroundColor=none;fontColor=#808080;fontSize=10;" parent="1" vertex="1" connectable="0">
                    <mxGeometry x="400.0036015948391" y="360.00180079741955" as="geometry">
                        <mxPoint y="1" as="offset"/>
                    </mxGeometry>
                </mxCell>
                <mxCell id="17" value="&lt;font style=&quot;font-size: 10px;&quot;&gt;E&lt;/font&gt;&lt;sub style=&quot;&quot;&gt;&lt;font style=&quot;font-size: 8px;&quot;&gt;0&lt;/font&gt;&lt;/sub&gt;" style="edgeLabel;html=1;align=right;verticalAlign=top;resizable=0;points=[];labelBackgroundColor=none;fontColor=#808080;fontSize=10;" parent="1" vertex="1" connectable="0">
                    <mxGeometry x="360.0036015948391" y="390.00180079741955" as="geometry">
                        <mxPoint x="1" y="-8" as="offset"/>
                    </mxGeometry>
                </mxCell>
                <mxCell id="18" value="&lt;font style=&quot;font-size: 10px;&quot;&gt;E&lt;/font&gt;&lt;sub style=&quot;&quot;&gt;&lt;font style=&quot;font-size: 8px;&quot;&gt;2&lt;/font&gt;&lt;/sub&gt;" style="edgeLabel;html=1;align=center;verticalAlign=middle;resizable=0;points=[];labelBackgroundColor=none;fontColor=#808080;fontSize=10;labelPosition=center;verticalLabelPosition=middle;spacing=0;" parent="1" vertex="1" connectable="0">
                    <mxGeometry x="350.0036015948391" y="330.00180079741955" as="geometry">
                        <mxPoint x="2" y="-6" as="offset"/>
                    </mxGeometry>
                </mxCell>
                <mxCell id="19" value="&lt;font style=&quot;font-size: 10px;&quot;&gt;E&lt;/font&gt;&lt;sub style=&quot;&quot;&gt;&lt;font style=&quot;font-size: 8px;&quot;&gt;3&lt;/font&gt;&lt;/sub&gt;" style="edgeLabel;html=1;align=left;verticalAlign=top;resizable=0;points=[];labelBackgroundColor=none;fontColor=#808080;fontSize=10;" parent="1" vertex="1" connectable="0">
                    <mxGeometry x="440.0036015948391" y="390.00180079741955" as="geometry">
                        <mxPoint x="1" y="-8" as="offset"/>
                    </mxGeometry>
                </mxCell>
                <mxCell id="20" value="&lt;font style=&quot;font-size: 10px;&quot;&gt;E&lt;/font&gt;&lt;sub style=&quot;&quot;&gt;&lt;font style=&quot;font-size: 8px;&quot;&gt;4&lt;/font&gt;&lt;/sub&gt;" style="edgeLabel;html=1;align=center;verticalAlign=middle;resizable=0;points=[];labelBackgroundColor=none;fontColor=#808080;fontSize=10;labelPosition=left;verticalLabelPosition=middle;spacing=0;" parent="1" vertex="1" connectable="0">
                    <mxGeometry x="442.0036015948391" y="330.00180079741955" as="geometry">
                        <mxPoint x="2" y="-6" as="offset"/>
                    </mxGeometry>
                </mxCell>
                <object label="Spaced" id="115">
                    <mxCell style="locked=1;" parent="0" visible="0"/>
                </object>
                <mxCell id="116" value="" style="edgeStyle=none;html=1;fontSize=8;fontColor=#808080;rounded=0;endArrow=none;endFill=0;strokeColor=#808080;" parent="115" source="122" target="146" edge="1">
                    <mxGeometry relative="1" as="geometry"/>
                </mxCell>
                <mxCell id="117" value="" style="edgeStyle=none;shape=connector;rounded=0;html=1;labelBackgroundColor=default;strokeColor=#808080;fontFamily=Helvetica;fontSize=8;fontColor=#808080;endArrow=none;endFill=0;startArrow=none;" parent="115" source="122" target="127" edge="1">
                    <mxGeometry relative="1" as="geometry"/>
                </mxCell>
                <mxCell id="118" value="" style="edgeStyle=none;shape=connector;rounded=0;html=1;labelBackgroundColor=default;strokeColor=#808080;fontFamily=Helvetica;fontSize=8;fontColor=#808080;endArrow=none;endFill=0;" parent="115" source="122" target="130" edge="1">
                    <mxGeometry relative="1" as="geometry"/>
                </mxCell>
                <mxCell id="119" value="" style="edgeStyle=none;shape=connector;rounded=0;html=1;labelBackgroundColor=default;strokeColor=#808080;fontFamily=Helvetica;fontSize=8;fontColor=#808080;endArrow=none;endFill=0;" parent="115" source="122" target="130" edge="1">
                    <mxGeometry relative="1" as="geometry"/>
                </mxCell>
                <mxCell id="120" value="" style="edgeStyle=none;shape=connector;rounded=0;html=1;labelBackgroundColor=default;strokeColor=#808080;fontFamily=Helvetica;fontSize=8;fontColor=#808080;endArrow=none;endFill=0;" parent="115" source="122" target="130" edge="1">
                    <mxGeometry relative="1" as="geometry"/>
                </mxCell>
                <mxCell id="121" value="" style="edgeStyle=none;shape=connector;rounded=0;html=1;labelBackgroundColor=default;strokeColor=#808080;fontFamily=Helvetica;fontSize=8;fontColor=#808080;endArrow=none;endFill=0;" parent="115" source="122" target="130" edge="1">
                    <mxGeometry relative="1" as="geometry"/>
                </mxCell>
                <mxCell id="122" value="F&lt;sub style=&quot;&quot;&gt;&lt;font style=&quot;font-size: 8px;&quot;&gt;0&lt;/font&gt;&lt;/sub&gt;" style="ellipse;whiteSpace=wrap;html=1;aspect=fixed;fontSize=10;fillColor=none;strokeColor=#00FF00;fontColor=#808080;" parent="115" vertex="1">
                    <mxGeometry x="610" y="350" width="20" height="20" as="geometry"/>
                </mxCell>
                <mxCell id="123" value="" style="edgeStyle=none;shape=connector;rounded=0;html=1;labelBackgroundColor=default;strokeColor=#808080;fontFamily=Helvetica;fontSize=8;fontColor=#808080;endArrow=none;endFill=0;" parent="115" source="146" target="131" edge="1">
                    <mxGeometry relative="1" as="geometry"/>
                </mxCell>
                <mxCell id="124" style="edgeStyle=none;shape=connector;rounded=0;html=1;labelBackgroundColor=default;strokeColor=#808080;fontFamily=Helvetica;fontSize=8;fontColor=#808080;endArrow=none;endFill=0;" parent="115" source="146" target="132" edge="1">
                    <mxGeometry relative="1" as="geometry"/>
                </mxCell>
                <mxCell id="125" value="" style="edgeStyle=none;shape=connector;rounded=0;html=1;labelBackgroundColor=default;strokeColor=#808080;fontFamily=Helvetica;fontSize=8;fontColor=#808080;endArrow=none;endFill=0;" parent="115" source="127" target="132" edge="1">
                    <mxGeometry relative="1" as="geometry"/>
                </mxCell>
                <mxCell id="126" style="edgeStyle=none;shape=connector;rounded=0;html=1;labelBackgroundColor=default;strokeColor=#808080;fontFamily=Helvetica;fontSize=8;fontColor=#808080;endArrow=none;endFill=0;" parent="115" source="127" target="133" edge="1">
                    <mxGeometry relative="1" as="geometry"/>
                </mxCell>
                <mxCell id="127" value="E&lt;sub style=&quot;&quot;&gt;&lt;font style=&quot;font-size: 8px;&quot;&gt;1&lt;/font&gt;&lt;/sub&gt;" style="ellipse;whiteSpace=wrap;html=1;aspect=fixed;fontSize=10;fillColor=none;strokeColor=#FFFF00;fontColor=#808080;" parent="115" vertex="1">
                    <mxGeometry x="650" y="350" width="20" height="20" as="geometry"/>
                </mxCell>
                <mxCell id="128" value="" style="edgeStyle=none;shape=connector;rounded=0;html=1;labelBackgroundColor=default;strokeColor=#808080;fontFamily=Helvetica;fontSize=8;fontColor=#808080;endArrow=none;endFill=0;" parent="115" source="130" target="133" edge="1">
                    <mxGeometry relative="1" as="geometry"/>
                </mxCell>
                <mxCell id="129" style="edgeStyle=none;shape=connector;rounded=0;html=1;labelBackgroundColor=default;strokeColor=#808080;fontFamily=Helvetica;fontSize=8;fontColor=#808080;endArrow=none;endFill=0;" parent="115" source="130" target="131" edge="1">
                    <mxGeometry relative="1" as="geometry"/>
                </mxCell>
                <mxCell id="130" value="E&lt;sub style=&quot;&quot;&gt;&lt;font style=&quot;font-size: 8px;&quot;&gt;2&lt;/font&gt;&lt;/sub&gt;" style="ellipse;whiteSpace=wrap;html=1;aspect=fixed;fontSize=10;fillColor=none;strokeColor=#00FF00;fontColor=#808080;" parent="115" vertex="1">
                    <mxGeometry x="610" y="320" width="20" height="20" as="geometry"/>
                </mxCell>
                <mxCell id="131" value="V&lt;sub style=&quot;&quot;&gt;&lt;font style=&quot;font-size: 8px;&quot;&gt;0&lt;/font&gt;&lt;/sub&gt;" style="ellipse;whiteSpace=wrap;html=1;aspect=fixed;fontSize=10;fillColor=none;strokeColor=#808080;fontColor=#808080;" parent="115" vertex="1">
                    <mxGeometry x="570" y="350" width="20" height="20" as="geometry"/>
                </mxCell>
                <mxCell id="132" value="V&lt;sub style=&quot;&quot;&gt;&lt;font style=&quot;font-size: 8px;&quot;&gt;1&lt;/font&gt;&lt;/sub&gt;" style="ellipse;whiteSpace=wrap;html=1;aspect=fixed;fontSize=10;fillColor=none;strokeColor=#808080;fontColor=#808080;" parent="115" vertex="1">
                    <mxGeometry x="650" y="410" width="20" height="20" as="geometry"/>
                </mxCell>
                <mxCell id="133" value="V&lt;sub style=&quot;&quot;&gt;&lt;font style=&quot;font-size: 8px;&quot;&gt;2&lt;/font&gt;&lt;/sub&gt;" style="ellipse;whiteSpace=wrap;html=1;aspect=fixed;fontSize=10;fillColor=none;strokeColor=#808080;fontColor=#808080;" parent="115" vertex="1">
                    <mxGeometry x="650" y="290" width="20" height="20" as="geometry"/>
                </mxCell>
                <mxCell id="134" style="edgeStyle=none;shape=connector;rounded=0;html=1;labelBackgroundColor=default;strokeColor=#808080;fontFamily=Helvetica;fontSize=8;fontColor=#808080;endArrow=none;endFill=0;" parent="115" source="136" target="127" edge="1">
                    <mxGeometry relative="1" as="geometry"/>
                </mxCell>
                <mxCell id="135" value="" style="edgeStyle=none;shape=connector;rounded=0;html=1;labelBackgroundColor=default;strokeColor=#808080;fontFamily=Helvetica;fontSize=8;fontColor=#808080;endArrow=none;endFill=0;" parent="115" source="136" target="140" edge="1">
                    <mxGeometry relative="1" as="geometry"/>
                </mxCell>
                <mxCell id="136" value="F&lt;sub style=&quot;&quot;&gt;&lt;font style=&quot;font-size: 8px;&quot;&gt;1&lt;/font&gt;&lt;/sub&gt;" style="ellipse;whiteSpace=wrap;html=1;aspect=fixed;fontSize=10;fillColor=none;strokeColor=#FF0000;fontColor=#808080;" parent="115" vertex="1">
                    <mxGeometry x="690" y="350" width="20" height="20" as="geometry"/>
                </mxCell>
                <mxCell id="137" value="" style="edgeStyle=none;shape=connector;rounded=0;html=1;labelBackgroundColor=default;strokeColor=#808080;fontFamily=Helvetica;fontSize=8;fontColor=#808080;endArrow=none;endFill=0;" parent="115" source="136" target="143" edge="1">
                    <mxGeometry relative="1" as="geometry"/>
                </mxCell>
                <mxCell id="138" value="" style="edgeStyle=none;shape=connector;rounded=0;html=1;labelBackgroundColor=default;strokeColor=#808080;fontFamily=Helvetica;fontSize=8;fontColor=#808080;endArrow=none;endFill=0;" parent="115" source="140" target="144" edge="1">
                    <mxGeometry relative="1" as="geometry"/>
                </mxCell>
                <mxCell id="139" style="edgeStyle=none;shape=connector;rounded=0;html=1;labelBackgroundColor=default;strokeColor=#808080;fontFamily=Helvetica;fontSize=8;fontColor=#808080;endArrow=none;endFill=0;" parent="115" source="140" target="132" edge="1">
                    <mxGeometry relative="1" as="geometry"/>
                </mxCell>
                <mxCell id="140" value="E&lt;sub style=&quot;&quot;&gt;&lt;font style=&quot;font-size: 8px;&quot;&gt;3&lt;/font&gt;&lt;/sub&gt;" style="ellipse;whiteSpace=wrap;html=1;aspect=fixed;fontSize=10;fillColor=none;strokeColor=#FF0000;fontColor=#808080;" parent="115" vertex="1">
                    <mxGeometry x="690" y="380" width="20" height="20" as="geometry"/>
                </mxCell>
                <mxCell id="141" style="edgeStyle=none;shape=connector;rounded=0;html=1;labelBackgroundColor=default;strokeColor=#808080;fontFamily=Helvetica;fontSize=8;fontColor=#808080;endArrow=none;endFill=0;" parent="115" source="143" target="144" edge="1">
                    <mxGeometry relative="1" as="geometry"/>
                </mxCell>
                <mxCell id="142" style="edgeStyle=none;shape=connector;rounded=0;html=1;labelBackgroundColor=default;strokeColor=#808080;fontFamily=Helvetica;fontSize=8;fontColor=#808080;endArrow=none;endFill=0;" parent="115" source="143" target="133" edge="1">
                    <mxGeometry relative="1" as="geometry"/>
                </mxCell>
                <mxCell id="143" value="E&lt;sub style=&quot;&quot;&gt;&lt;font style=&quot;font-size: 8px;&quot;&gt;4&lt;/font&gt;&lt;/sub&gt;" style="ellipse;whiteSpace=wrap;html=1;aspect=fixed;fontSize=10;fillColor=none;strokeColor=#FF0000;fontColor=#808080;" parent="115" vertex="1">
                    <mxGeometry x="690" y="320" width="20" height="20" as="geometry"/>
                </mxCell>
                <mxCell id="144" value="V&lt;sub style=&quot;&quot;&gt;&lt;font style=&quot;font-size: 8px;&quot;&gt;3&lt;/font&gt;&lt;/sub&gt;" style="ellipse;whiteSpace=wrap;html=1;aspect=fixed;fontSize=10;fillColor=none;strokeColor=#808080;fontColor=#808080;" parent="115" vertex="1">
                    <mxGeometry x="732" y="350" width="20" height="20" as="geometry"/>
                </mxCell>
                <mxCell id="145" value="" style="edgeStyle=none;shape=connector;rounded=0;html=1;labelBackgroundColor=default;strokeColor=#808080;fontFamily=Helvetica;fontSize=8;fontColor=#808080;endArrow=none;endFill=0;" parent="115" source="122" target="146" edge="1">
                    <mxGeometry relative="1" as="geometry">
                        <mxPoint x="588.9442719099992" y="344.47213595499954" as="sourcePoint"/>
                        <mxPoint x="651.0557280900009" y="375.52786404500046" as="targetPoint"/>
                    </mxGeometry>
                </mxCell>
                <mxCell id="146" value="E&lt;sub style=&quot;&quot;&gt;&lt;font style=&quot;font-size: 8px;&quot;&gt;0&lt;/font&gt;&lt;/sub&gt;" style="ellipse;whiteSpace=wrap;html=1;aspect=fixed;fontSize=10;fillColor=none;strokeColor=#00FF00;fontColor=#808080;" parent="115" vertex="1">
                    <mxGeometry x="610" y="380" width="20" height="20" as="geometry"/>
                </mxCell>
                <mxCell id="147" value="Ordered" style="" parent="0" visible="0"/>
                <mxCell id="148" value="" style="edgeStyle=none;html=1;fontSize=8;fontColor=#808080;rounded=0;endArrow=none;endFill=0;strokeColor=#808080;" parent="147" source="154" target="178" edge="1">
                    <mxGeometry relative="1" as="geometry"/>
                </mxCell>
                <mxCell id="149" value="" style="edgeStyle=none;shape=connector;rounded=0;html=1;labelBackgroundColor=default;strokeColor=#808080;fontFamily=Helvetica;fontSize=8;fontColor=#808080;endArrow=none;endFill=0;startArrow=none;" parent="147" source="154" target="159" edge="1">
                    <mxGeometry relative="1" as="geometry"/>
                </mxCell>
                <mxCell id="150" value="" style="edgeStyle=none;shape=connector;rounded=0;html=1;labelBackgroundColor=default;strokeColor=#808080;fontFamily=Helvetica;fontSize=8;fontColor=#808080;endArrow=none;endFill=0;" parent="147" source="154" target="162" edge="1">
                    <mxGeometry relative="1" as="geometry"/>
                </mxCell>
                <mxCell id="151" value="" style="edgeStyle=none;shape=connector;rounded=0;html=1;labelBackgroundColor=default;strokeColor=#808080;fontFamily=Helvetica;fontSize=8;fontColor=#808080;endArrow=none;endFill=0;" parent="147" source="154" target="162" edge="1">
                    <mxGeometry relative="1" as="geometry"/>
                </mxCell>
                <mxCell id="152" value="" style="edgeStyle=none;shape=connector;rounded=0;html=1;labelBackgroundColor=default;strokeColor=#808080;fontFamily=Helvetica;fontSize=8;fontColor=#808080;endArrow=none;endFill=0;" parent="147" source="154" target="162" edge="1">
                    <mxGeometry relative="1" as="geometry"/>
                </mxCell>
                <mxCell id="153" value="" style="edgeStyle=none;shape=connector;rounded=0;html=1;labelBackgroundColor=default;strokeColor=#808080;fontFamily=Helvetica;fontSize=8;fontColor=#808080;endArrow=none;endFill=0;" parent="147" source="154" target="162" edge="1">
                    <mxGeometry relative="1" as="geometry"/>
                </mxCell>
                <mxCell id="154" value="F&lt;sub style=&quot;&quot;&gt;&lt;font style=&quot;font-size: 8px;&quot;&gt;0&lt;/font&gt;&lt;/sub&gt;" style="ellipse;whiteSpace=wrap;html=1;aspect=fixed;fontSize=10;fillColor=none;strokeColor=#00FF00;fontColor=#808080;" parent="147" vertex="1">
                    <mxGeometry x="610" y="490" width="20" height="20" as="geometry"/>
                </mxCell>
                <mxCell id="155" value="" style="edgeStyle=none;shape=connector;rounded=0;html=1;labelBackgroundColor=default;strokeColor=#808080;fontFamily=Helvetica;fontSize=8;fontColor=#808080;endArrow=none;endFill=0;" parent="147" source="178" target="163" edge="1">
                    <mxGeometry relative="1" as="geometry"/>
                </mxCell>
                <mxCell id="156" style="edgeStyle=none;shape=connector;rounded=0;html=1;labelBackgroundColor=default;strokeColor=#808080;fontFamily=Helvetica;fontSize=8;fontColor=#808080;endArrow=none;endFill=0;" parent="147" source="178" target="164" edge="1">
                    <mxGeometry relative="1" as="geometry"/>
                </mxCell>
                <mxCell id="157" value="" style="edgeStyle=none;shape=connector;rounded=0;html=1;labelBackgroundColor=default;strokeColor=#808080;fontFamily=Helvetica;fontSize=8;fontColor=#808080;endArrow=none;endFill=0;" parent="147" source="159" target="164" edge="1">
                    <mxGeometry relative="1" as="geometry"/>
                </mxCell>
                <mxCell id="158" style="edgeStyle=none;shape=connector;rounded=0;html=1;labelBackgroundColor=default;strokeColor=#808080;fontFamily=Helvetica;fontSize=8;fontColor=#808080;endArrow=none;endFill=0;" parent="147" source="159" target="165" edge="1">
                    <mxGeometry relative="1" as="geometry"/>
                </mxCell>
                <mxCell id="159" value="E&lt;sub style=&quot;&quot;&gt;&lt;font style=&quot;font-size: 8px;&quot;&gt;1&lt;/font&gt;&lt;/sub&gt;" style="ellipse;whiteSpace=wrap;html=1;aspect=fixed;fontSize=10;fillColor=none;strokeColor=#FFFF00;fontColor=#808080;" parent="147" vertex="1">
                    <mxGeometry x="650" y="530" width="20" height="20" as="geometry"/>
                </mxCell>
                <mxCell id="160" value="" style="edgeStyle=none;shape=connector;rounded=0;html=1;labelBackgroundColor=default;strokeColor=#808080;fontFamily=Helvetica;fontSize=8;fontColor=#808080;endArrow=none;endFill=0;" parent="147" source="162" target="165" edge="1">
                    <mxGeometry relative="1" as="geometry"/>
                </mxCell>
                <mxCell id="161" style="edgeStyle=none;shape=connector;rounded=0;html=1;labelBackgroundColor=default;strokeColor=#808080;fontFamily=Helvetica;fontSize=8;fontColor=#808080;endArrow=none;endFill=0;" parent="147" source="162" target="163" edge="1">
                    <mxGeometry relative="1" as="geometry"/>
                </mxCell>
                <mxCell id="162" value="E&lt;sub style=&quot;&quot;&gt;&lt;font style=&quot;font-size: 8px;&quot;&gt;2&lt;/font&gt;&lt;/sub&gt;" style="ellipse;whiteSpace=wrap;html=1;aspect=fixed;fontSize=10;fillColor=none;strokeColor=#00FF00;fontColor=#808080;" parent="147" vertex="1">
                    <mxGeometry x="610" y="530" width="20" height="20" as="geometry"/>
                </mxCell>
                <mxCell id="163" value="V&lt;sub style=&quot;&quot;&gt;&lt;font style=&quot;font-size: 8px;&quot;&gt;0&lt;/font&gt;&lt;/sub&gt;" style="ellipse;whiteSpace=wrap;html=1;aspect=fixed;fontSize=10;fillColor=none;strokeColor=#808080;fontColor=#808080;" parent="147" vertex="1">
                    <mxGeometry x="590" y="570" width="20" height="20" as="geometry"/>
                </mxCell>
                <mxCell id="164" value="V&lt;sub style=&quot;&quot;&gt;&lt;font style=&quot;font-size: 8px;&quot;&gt;1&lt;/font&gt;&lt;/sub&gt;" style="ellipse;whiteSpace=wrap;html=1;aspect=fixed;fontSize=10;fillColor=none;strokeColor=#808080;fontColor=#808080;" parent="147" vertex="1">
                    <mxGeometry x="630" y="570" width="20" height="20" as="geometry"/>
                </mxCell>
                <mxCell id="165" value="V&lt;sub style=&quot;&quot;&gt;&lt;font style=&quot;font-size: 8px;&quot;&gt;2&lt;/font&gt;&lt;/sub&gt;" style="ellipse;whiteSpace=wrap;html=1;aspect=fixed;fontSize=10;fillColor=none;strokeColor=#808080;fontColor=#808080;" parent="147" vertex="1">
                    <mxGeometry x="670" y="570" width="20" height="20" as="geometry"/>
                </mxCell>
                <mxCell id="166" style="edgeStyle=none;shape=connector;rounded=0;html=1;labelBackgroundColor=default;strokeColor=#808080;fontFamily=Helvetica;fontSize=8;fontColor=#808080;endArrow=none;endFill=0;" parent="147" source="168" target="159" edge="1">
                    <mxGeometry relative="1" as="geometry"/>
                </mxCell>
                <mxCell id="167" value="" style="edgeStyle=none;shape=connector;rounded=0;html=1;labelBackgroundColor=default;strokeColor=#808080;fontFamily=Helvetica;fontSize=8;fontColor=#808080;endArrow=none;endFill=0;" parent="147" source="168" target="172" edge="1">
                    <mxGeometry relative="1" as="geometry"/>
                </mxCell>
                <mxCell id="168" value="F&lt;sub style=&quot;&quot;&gt;&lt;font style=&quot;font-size: 8px;&quot;&gt;1&lt;/font&gt;&lt;/sub&gt;" style="ellipse;whiteSpace=wrap;html=1;aspect=fixed;fontSize=10;fillColor=none;strokeColor=#FF0000;fontColor=#808080;" parent="147" vertex="1">
                    <mxGeometry x="690" y="490" width="20" height="20" as="geometry"/>
                </mxCell>
                <mxCell id="169" value="" style="edgeStyle=none;shape=connector;rounded=0;html=1;labelBackgroundColor=default;strokeColor=#808080;fontFamily=Helvetica;fontSize=8;fontColor=#808080;endArrow=none;endFill=0;" parent="147" source="168" target="175" edge="1">
                    <mxGeometry relative="1" as="geometry"/>
                </mxCell>
                <mxCell id="170" value="" style="edgeStyle=none;shape=connector;rounded=0;html=1;labelBackgroundColor=default;strokeColor=#808080;fontFamily=Helvetica;fontSize=8;fontColor=#808080;endArrow=none;endFill=0;" parent="147" source="172" target="176" edge="1">
                    <mxGeometry relative="1" as="geometry"/>
                </mxCell>
                <mxCell id="171" style="edgeStyle=none;shape=connector;rounded=0;html=1;labelBackgroundColor=default;strokeColor=#808080;fontFamily=Helvetica;fontSize=8;fontColor=#808080;endArrow=none;endFill=0;" parent="147" source="172" target="164" edge="1">
                    <mxGeometry relative="1" as="geometry"/>
                </mxCell>
                <mxCell id="172" value="E&lt;sub style=&quot;&quot;&gt;&lt;font style=&quot;font-size: 8px;&quot;&gt;3&lt;/font&gt;&lt;/sub&gt;" style="ellipse;whiteSpace=wrap;html=1;aspect=fixed;fontSize=10;fillColor=none;strokeColor=#FF0000;fontColor=#808080;" parent="147" vertex="1">
                    <mxGeometry x="692" y="530" width="20" height="20" as="geometry"/>
                </mxCell>
                <mxCell id="173" style="edgeStyle=none;shape=connector;rounded=0;html=1;labelBackgroundColor=default;strokeColor=#808080;fontFamily=Helvetica;fontSize=8;fontColor=#808080;endArrow=none;endFill=0;" parent="147" source="175" target="176" edge="1">
                    <mxGeometry relative="1" as="geometry"/>
                </mxCell>
                <mxCell id="174" style="edgeStyle=none;shape=connector;rounded=0;html=1;labelBackgroundColor=default;strokeColor=#808080;fontFamily=Helvetica;fontSize=8;fontColor=#808080;endArrow=none;endFill=0;" parent="147" source="175" target="165" edge="1">
                    <mxGeometry relative="1" as="geometry"/>
                </mxCell>
                <mxCell id="175" value="E&lt;sub style=&quot;&quot;&gt;&lt;font style=&quot;font-size: 8px;&quot;&gt;4&lt;/font&gt;&lt;/sub&gt;" style="ellipse;whiteSpace=wrap;html=1;aspect=fixed;fontSize=10;fillColor=none;strokeColor=#FF0000;fontColor=#808080;" parent="147" vertex="1">
                    <mxGeometry x="730" y="530" width="20" height="20" as="geometry"/>
                </mxCell>
                <mxCell id="176" value="V&lt;sub style=&quot;&quot;&gt;&lt;font style=&quot;font-size: 8px;&quot;&gt;3&lt;/font&gt;&lt;/sub&gt;" style="ellipse;whiteSpace=wrap;html=1;aspect=fixed;fontSize=10;fillColor=none;strokeColor=#808080;fontColor=#808080;" parent="147" vertex="1">
                    <mxGeometry x="710" y="570" width="20" height="20" as="geometry"/>
                </mxCell>
                <mxCell id="177" value="" style="edgeStyle=none;shape=connector;rounded=0;html=1;labelBackgroundColor=default;strokeColor=#808080;fontFamily=Helvetica;fontSize=8;fontColor=#808080;endArrow=none;endFill=0;" parent="147" source="154" target="178" edge="1">
                    <mxGeometry relative="1" as="geometry">
                        <mxPoint x="588.9442719099992" y="554.4721359549995" as="sourcePoint"/>
                        <mxPoint x="651.0557280900009" y="585.5278640450005" as="targetPoint"/>
                    </mxGeometry>
                </mxCell>
                <mxCell id="178" value="E&lt;sub style=&quot;&quot;&gt;&lt;font style=&quot;font-size: 8px;&quot;&gt;0&lt;/font&gt;&lt;/sub&gt;" style="ellipse;whiteSpace=wrap;html=1;aspect=fixed;fontSize=10;fillColor=none;strokeColor=#00FF00;fontColor=#808080;" parent="147" vertex="1">
                    <mxGeometry x="570" y="530" width="20" height="20" as="geometry"/>
                </mxCell>
                <mxCell id="210" value="Untitled Layer" parent="0"/>
                <mxCell id="211" value="" style="edgeStyle=none;html=1;fontSize=8;fontColor=#808080;rounded=0;endArrow=none;endFill=0;strokeColor=#808080;" edge="1" parent="210" source="217" target="241">
                    <mxGeometry relative="1" as="geometry"/>
                </mxCell>
                <mxCell id="213" value="" style="edgeStyle=none;shape=connector;rounded=0;html=1;labelBackgroundColor=default;strokeColor=#808080;fontFamily=Helvetica;fontSize=8;fontColor=#808080;endArrow=none;endFill=0;" edge="1" parent="210" source="217" target="225">
                    <mxGeometry relative="1" as="geometry"/>
                </mxCell>
                <mxCell id="214" value="" style="edgeStyle=none;shape=connector;rounded=0;html=1;labelBackgroundColor=default;strokeColor=#808080;fontFamily=Helvetica;fontSize=8;fontColor=#808080;endArrow=none;endFill=0;" edge="1" parent="210" source="217" target="225">
                    <mxGeometry relative="1" as="geometry"/>
                </mxCell>
                <mxCell id="215" value="" style="edgeStyle=none;shape=connector;rounded=0;html=1;labelBackgroundColor=default;strokeColor=#808080;fontFamily=Helvetica;fontSize=8;fontColor=#808080;endArrow=none;endFill=0;" edge="1" parent="210" source="217" target="225">
                    <mxGeometry relative="1" as="geometry"/>
                </mxCell>
                <mxCell id="216" value="" style="edgeStyle=none;shape=connector;rounded=0;html=1;labelBackgroundColor=default;strokeColor=#808080;fontFamily=Helvetica;fontSize=8;fontColor=#808080;endArrow=none;endFill=0;" edge="1" parent="210" source="217" target="225">
                    <mxGeometry relative="1" as="geometry"/>
                </mxCell>
                <mxCell id="246" style="edgeStyle=none;shape=connector;rounded=0;html=1;labelBackgroundColor=default;strokeColor=#808080;fontFamily=Helvetica;fontSize=8;fontColor=#808080;endArrow=none;endFill=0;" edge="1" parent="210" source="217" target="244">
                    <mxGeometry relative="1" as="geometry"/>
                </mxCell>
                <mxCell id="217" value="F&lt;sub style=&quot;&quot;&gt;&lt;font style=&quot;font-size: 8px;&quot;&gt;0&lt;/font&gt;&lt;/sub&gt;" style="ellipse;whiteSpace=wrap;html=1;aspect=fixed;fontSize=10;fillColor=none;strokeColor=#00FF00;fontColor=#808080;" vertex="1" parent="210">
                    <mxGeometry x="490" y="450" width="20" height="20" as="geometry"/>
                </mxCell>
                <mxCell id="259" style="edgeStyle=none;shape=connector;rounded=0;html=1;labelBackgroundColor=default;strokeColor=#808080;fontFamily=Helvetica;fontSize=8;fontColor=#808080;endArrow=none;endFill=0;" edge="1" parent="210" source="222" target="258">
                    <mxGeometry relative="1" as="geometry"/>
                </mxCell>
                <mxCell id="296" style="edgeStyle=none;shape=connector;rounded=0;html=1;labelBackgroundColor=default;strokeColor=#808080;fontFamily=Helvetica;fontSize=8;fontColor=#808080;endArrow=none;endFill=0;" edge="1" parent="210" source="222" target="228">
                    <mxGeometry relative="1" as="geometry"/>
                </mxCell>
                <mxCell id="297" style="edgeStyle=none;shape=connector;rounded=0;html=1;labelBackgroundColor=default;strokeColor=#808080;fontFamily=Helvetica;fontSize=8;fontColor=#808080;endArrow=none;endFill=0;" edge="1" parent="210" source="222" target="227">
                    <mxGeometry relative="1" as="geometry"/>
                </mxCell>
                <mxCell id="222" value="E&lt;sub style=&quot;&quot;&gt;&lt;font style=&quot;font-size: 8px;&quot;&gt;1&lt;/font&gt;&lt;/sub&gt;" style="ellipse;whiteSpace=wrap;html=1;aspect=fixed;fontSize=10;fillColor=none;strokeColor=#FFFF00;fontColor=#808080;" vertex="1" parent="210">
                    <mxGeometry x="570" y="450" width="20" height="20" as="geometry"/>
                </mxCell>
                <mxCell id="251" value="" style="edgeStyle=none;shape=connector;rounded=0;html=1;labelBackgroundColor=default;strokeColor=#808080;fontFamily=Helvetica;fontSize=8;fontColor=#808080;endArrow=none;endFill=0;" edge="1" parent="210" source="225" target="250">
                    <mxGeometry relative="1" as="geometry"/>
                </mxCell>
                <mxCell id="264" style="edgeStyle=none;shape=connector;rounded=0;html=1;labelBackgroundColor=default;strokeColor=#808080;fontFamily=Helvetica;fontSize=8;fontColor=#808080;endArrow=none;endFill=0;" edge="1" parent="210" source="225" target="261">
                    <mxGeometry relative="1" as="geometry"/>
                </mxCell>
                <mxCell id="269" style="edgeStyle=none;shape=connector;rounded=0;html=1;labelBackgroundColor=default;strokeColor=#808080;fontFamily=Helvetica;fontSize=8;fontColor=#808080;endArrow=none;endFill=0;" edge="1" parent="210" source="225" target="268">
                    <mxGeometry relative="1" as="geometry"/>
                </mxCell>
                <mxCell id="225" value="e&lt;sub style=&quot;&quot;&gt;&lt;font style=&quot;font-size: 8px;&quot;&gt;2&lt;/font&gt;&lt;/sub&gt;" style="ellipse;whiteSpace=wrap;html=1;aspect=fixed;fontSize=10;fillColor=none;strokeColor=#00FF00;fontColor=#808080;" vertex="1" parent="210">
                    <mxGeometry x="490" y="410" width="20" height="20" as="geometry"/>
                </mxCell>
                <mxCell id="226" value="V&lt;sub style=&quot;&quot;&gt;&lt;font style=&quot;font-size: 8px;&quot;&gt;0&lt;/font&gt;&lt;/sub&gt;" style="ellipse;whiteSpace=wrap;html=1;aspect=fixed;fontSize=10;fillColor=none;strokeColor=#808080;fontColor=#808080;" vertex="1" parent="210">
                    <mxGeometry x="410" y="450" width="20" height="20" as="geometry"/>
                </mxCell>
                <mxCell id="274" style="edgeStyle=none;shape=connector;rounded=0;html=1;labelBackgroundColor=default;strokeColor=#808080;fontFamily=Helvetica;fontSize=8;fontColor=#808080;endArrow=none;endFill=0;" edge="1" parent="210" source="227" target="262">
                    <mxGeometry relative="1" as="geometry"/>
                </mxCell>
                <mxCell id="281" style="edgeStyle=none;shape=connector;rounded=0;html=1;labelBackgroundColor=default;strokeColor=#808080;fontFamily=Helvetica;fontSize=8;fontColor=#808080;endArrow=none;endFill=0;" edge="1" parent="210" source="227" target="280">
                    <mxGeometry relative="1" as="geometry"/>
                </mxCell>
                <mxCell id="288" style="edgeStyle=none;shape=connector;rounded=0;html=1;labelBackgroundColor=default;strokeColor=#808080;fontFamily=Helvetica;fontSize=8;fontColor=#808080;endArrow=none;endFill=0;" edge="1" parent="210" source="227" target="235">
                    <mxGeometry relative="1" as="geometry"/>
                </mxCell>
                <mxCell id="227" value="V&lt;sub style=&quot;&quot;&gt;&lt;font style=&quot;font-size: 8px;&quot;&gt;1&lt;/font&gt;&lt;/sub&gt;" style="ellipse;whiteSpace=wrap;html=1;aspect=fixed;fontSize=10;fillColor=none;strokeColor=#808080;fontColor=#808080;" vertex="1" parent="210">
                    <mxGeometry x="570" y="530" width="20" height="20" as="geometry"/>
                </mxCell>
                <mxCell id="293" style="edgeStyle=none;shape=connector;rounded=0;html=1;labelBackgroundColor=default;strokeColor=#808080;fontFamily=Helvetica;fontSize=8;fontColor=#808080;endArrow=none;endFill=0;" edge="1" parent="210" source="228" target="268">
                    <mxGeometry relative="1" as="geometry"/>
                </mxCell>
                <mxCell id="294" style="edgeStyle=none;shape=connector;rounded=0;html=1;labelBackgroundColor=default;strokeColor=#808080;fontFamily=Helvetica;fontSize=8;fontColor=#808080;endArrow=none;endFill=0;" edge="1" parent="210" source="228" target="279">
                    <mxGeometry relative="1" as="geometry"/>
                </mxCell>
                <mxCell id="228" value="V&lt;sub style=&quot;&quot;&gt;&lt;font style=&quot;font-size: 8px;&quot;&gt;2&lt;/font&gt;&lt;/sub&gt;" style="ellipse;whiteSpace=wrap;html=1;aspect=fixed;fontSize=10;fillColor=none;strokeColor=#808080;fontColor=#808080;" vertex="1" parent="210">
                    <mxGeometry x="570" y="370" width="20" height="20" as="geometry"/>
                </mxCell>
                <mxCell id="230" value="" style="edgeStyle=none;shape=connector;rounded=0;html=1;labelBackgroundColor=default;strokeColor=#808080;fontFamily=Helvetica;fontSize=8;fontColor=#808080;endArrow=none;endFill=0;startArrow=none;" edge="1" parent="210" source="254" target="235">
                    <mxGeometry relative="1" as="geometry"/>
                </mxCell>
                <mxCell id="260" style="edgeStyle=none;shape=connector;rounded=0;html=1;labelBackgroundColor=default;strokeColor=#808080;fontFamily=Helvetica;fontSize=8;fontColor=#808080;endArrow=none;endFill=0;" edge="1" parent="210" source="231" target="258">
                    <mxGeometry relative="1" as="geometry"/>
                </mxCell>
                <mxCell id="231" value="F&lt;sub style=&quot;&quot;&gt;&lt;font style=&quot;font-size: 8px;&quot;&gt;1&lt;/font&gt;&lt;/sub&gt;" style="ellipse;whiteSpace=wrap;html=1;aspect=fixed;fontSize=10;fillColor=none;strokeColor=#FF0000;fontColor=#808080;" vertex="1" parent="210">
                    <mxGeometry x="650" y="450" width="20" height="20" as="geometry"/>
                </mxCell>
                <mxCell id="232" value="" style="edgeStyle=none;shape=connector;rounded=0;html=1;labelBackgroundColor=default;strokeColor=#808080;fontFamily=Helvetica;fontSize=8;fontColor=#808080;endArrow=none;endFill=0;startArrow=none;" edge="1" parent="210" source="256" target="238">
                    <mxGeometry relative="1" as="geometry"/>
                </mxCell>
                <mxCell id="289" style="edgeStyle=none;shape=connector;rounded=0;html=1;labelBackgroundColor=default;strokeColor=#808080;fontFamily=Helvetica;fontSize=8;fontColor=#808080;endArrow=none;endFill=0;" edge="1" parent="210" source="235" target="239">
                    <mxGeometry relative="1" as="geometry"/>
                </mxCell>
                <mxCell id="235" value="E&lt;sub style=&quot;&quot;&gt;&lt;font style=&quot;font-size: 8px;&quot;&gt;3&lt;/font&gt;&lt;/sub&gt;" style="ellipse;whiteSpace=wrap;html=1;aspect=fixed;fontSize=10;fillColor=none;strokeColor=#FF0000;fontColor=#808080;" vertex="1" parent="210">
                    <mxGeometry x="650" y="530" width="20" height="20" as="geometry"/>
                </mxCell>
                <mxCell id="292" style="edgeStyle=none;shape=connector;rounded=0;html=1;labelBackgroundColor=default;strokeColor=#808080;fontFamily=Helvetica;fontSize=8;fontColor=#808080;endArrow=none;endFill=0;" edge="1" parent="210" source="238" target="228">
                    <mxGeometry relative="1" as="geometry"/>
                </mxCell>
                <mxCell id="238" value="E&lt;sub style=&quot;&quot;&gt;&lt;font style=&quot;font-size: 8px;&quot;&gt;4&lt;/font&gt;&lt;/sub&gt;" style="ellipse;whiteSpace=wrap;html=1;aspect=fixed;fontSize=10;fillColor=none;strokeColor=#FF0000;fontColor=#808080;" vertex="1" parent="210">
                    <mxGeometry x="650" y="370" width="20" height="20" as="geometry"/>
                </mxCell>
                <mxCell id="290" style="edgeStyle=none;shape=connector;rounded=0;html=1;labelBackgroundColor=default;strokeColor=#808080;fontFamily=Helvetica;fontSize=8;fontColor=#808080;endArrow=none;endFill=0;" edge="1" parent="210" source="239" target="238">
                    <mxGeometry relative="1" as="geometry"/>
                </mxCell>
                <mxCell id="239" value="V&lt;sub style=&quot;&quot;&gt;&lt;font style=&quot;font-size: 8px;&quot;&gt;3&lt;/font&gt;&lt;/sub&gt;" style="ellipse;whiteSpace=wrap;html=1;aspect=fixed;fontSize=10;fillColor=none;strokeColor=#808080;fontColor=#808080;" vertex="1" parent="210">
                    <mxGeometry x="730" y="450" width="20" height="20" as="geometry"/>
                </mxCell>
                <mxCell id="240" value="" style="edgeStyle=none;shape=connector;rounded=0;html=1;labelBackgroundColor=default;strokeColor=#808080;fontFamily=Helvetica;fontSize=8;fontColor=#808080;endArrow=none;endFill=0;" edge="1" parent="210" source="217" target="241">
                    <mxGeometry relative="1" as="geometry">
                        <mxPoint x="508.9442719099992" y="514.4721359549995" as="sourcePoint"/>
                        <mxPoint x="571.0557280900009" y="545.5278640450005" as="targetPoint"/>
                    </mxGeometry>
                </mxCell>
                <mxCell id="247" value="" style="edgeStyle=none;shape=connector;rounded=0;html=1;labelBackgroundColor=default;strokeColor=#808080;fontFamily=Helvetica;fontSize=8;fontColor=#808080;endArrow=none;endFill=0;" edge="1" parent="210" source="241" target="217">
                    <mxGeometry relative="1" as="geometry"/>
                </mxCell>
                <mxCell id="249" value="" style="edgeStyle=none;shape=connector;rounded=0;html=1;labelBackgroundColor=default;strokeColor=#808080;fontFamily=Helvetica;fontSize=8;fontColor=#808080;endArrow=none;endFill=0;" edge="1" parent="210" source="241" target="248">
                    <mxGeometry relative="1" as="geometry"/>
                </mxCell>
                <mxCell id="265" style="edgeStyle=none;shape=connector;rounded=0;html=1;labelBackgroundColor=default;strokeColor=#808080;fontFamily=Helvetica;fontSize=8;fontColor=#808080;endArrow=none;endFill=0;" edge="1" parent="210" source="241" target="261">
                    <mxGeometry relative="1" as="geometry"/>
                </mxCell>
                <mxCell id="266" style="edgeStyle=none;shape=connector;rounded=0;html=1;labelBackgroundColor=default;strokeColor=#808080;fontFamily=Helvetica;fontSize=8;fontColor=#808080;endArrow=none;endFill=0;" edge="1" parent="210" source="241" target="262">
                    <mxGeometry relative="1" as="geometry"/>
                </mxCell>
                <mxCell id="241" value="e&lt;sub style=&quot;&quot;&gt;&lt;font style=&quot;font-size: 8px;&quot;&gt;0&lt;/font&gt;&lt;/sub&gt;" style="ellipse;whiteSpace=wrap;html=1;aspect=fixed;fontSize=10;fillColor=none;strokeColor=#00FF00;fontColor=#808080;" vertex="1" parent="210">
                    <mxGeometry x="490" y="490" width="20" height="20" as="geometry"/>
                </mxCell>
                <mxCell id="252" style="edgeStyle=none;shape=connector;rounded=0;html=1;labelBackgroundColor=default;strokeColor=#808080;fontFamily=Helvetica;fontSize=8;fontColor=#808080;endArrow=none;endFill=0;" edge="1" parent="210" source="244" target="222">
                    <mxGeometry relative="1" as="geometry"/>
                </mxCell>
                <mxCell id="267" style="edgeStyle=none;shape=connector;rounded=0;html=1;labelBackgroundColor=default;strokeColor=#808080;fontFamily=Helvetica;fontSize=8;fontColor=#808080;endArrow=none;endFill=0;" edge="1" parent="210" source="244" target="262">
                    <mxGeometry relative="1" as="geometry"/>
                </mxCell>
                <mxCell id="270" style="edgeStyle=none;shape=connector;rounded=0;html=1;labelBackgroundColor=default;strokeColor=#808080;fontFamily=Helvetica;fontSize=8;fontColor=#808080;endArrow=none;endFill=0;" edge="1" parent="210" source="244" target="268">
                    <mxGeometry relative="1" as="geometry"/>
                </mxCell>
                <mxCell id="244" value="e&lt;sub style=&quot;&quot;&gt;&lt;font style=&quot;font-size: 8px;&quot;&gt;1&lt;/font&gt;&lt;/sub&gt;" style="ellipse;whiteSpace=wrap;html=1;aspect=fixed;fontSize=10;fillColor=none;strokeColor=#00FF00;fontColor=#808080;" vertex="1" parent="210">
                    <mxGeometry x="530" y="450" width="20" height="20" as="geometry"/>
                </mxCell>
                <mxCell id="275" style="edgeStyle=none;shape=connector;rounded=0;html=1;labelBackgroundColor=default;strokeColor=#808080;fontFamily=Helvetica;fontSize=8;fontColor=#808080;endArrow=none;endFill=0;" edge="1" parent="210" source="248" target="227">
                    <mxGeometry relative="1" as="geometry"/>
                </mxCell>
                <mxCell id="276" style="edgeStyle=none;shape=connector;rounded=0;html=1;labelBackgroundColor=default;strokeColor=#808080;fontFamily=Helvetica;fontSize=8;fontColor=#808080;endArrow=none;endFill=0;" edge="1" parent="210" source="248" target="226">
                    <mxGeometry relative="1" as="geometry"/>
                </mxCell>
                <mxCell id="248" value="E&lt;sub style=&quot;&quot;&gt;&lt;font style=&quot;font-size: 8px;&quot;&gt;0&lt;/font&gt;&lt;/sub&gt;" style="ellipse;whiteSpace=wrap;html=1;aspect=fixed;fontSize=10;fillColor=none;strokeColor=#00FF00;fontColor=#808080;" vertex="1" parent="210">
                    <mxGeometry x="490" y="530" width="20" height="20" as="geometry"/>
                </mxCell>
                <mxCell id="271" style="edgeStyle=none;shape=connector;rounded=0;html=1;labelBackgroundColor=default;strokeColor=#808080;fontFamily=Helvetica;fontSize=8;fontColor=#808080;endArrow=none;endFill=0;" edge="1" parent="210" source="250" target="226">
                    <mxGeometry relative="1" as="geometry"/>
                </mxCell>
                <mxCell id="272" style="edgeStyle=none;shape=connector;rounded=0;html=1;labelBackgroundColor=default;strokeColor=#808080;fontFamily=Helvetica;fontSize=8;fontColor=#808080;endArrow=none;endFill=0;" edge="1" parent="210" source="250" target="228">
                    <mxGeometry relative="1" as="geometry"/>
                </mxCell>
                <mxCell id="250" value="E&lt;sub style=&quot;&quot;&gt;&lt;font style=&quot;font-size: 8px;&quot;&gt;2&lt;/font&gt;&lt;/sub&gt;" style="ellipse;whiteSpace=wrap;html=1;aspect=fixed;fontSize=10;fillColor=none;strokeColor=#00FF00;fontColor=#808080;" vertex="1" parent="210">
                    <mxGeometry x="490" y="370" width="20" height="20" as="geometry"/>
                </mxCell>
                <mxCell id="255" value="" style="edgeStyle=none;shape=connector;rounded=0;html=1;labelBackgroundColor=default;strokeColor=#808080;fontFamily=Helvetica;fontSize=8;fontColor=#808080;endArrow=none;endFill=0;" edge="1" parent="210" source="231" target="254">
                    <mxGeometry relative="1" as="geometry">
                        <mxPoint x="657.9104175972736" y="469.77924564475904" as="sourcePoint"/>
                        <mxPoint x="632.0952908872938" y="590.2219758592952" as="targetPoint"/>
                    </mxGeometry>
                </mxCell>
                <mxCell id="284" style="edgeStyle=none;shape=connector;rounded=0;html=1;labelBackgroundColor=default;strokeColor=#808080;fontFamily=Helvetica;fontSize=8;fontColor=#808080;endArrow=none;endFill=0;" edge="1" parent="210" source="254" target="277">
                    <mxGeometry relative="1" as="geometry"/>
                </mxCell>
                <mxCell id="285" style="edgeStyle=none;shape=connector;rounded=0;html=1;labelBackgroundColor=default;strokeColor=#808080;fontFamily=Helvetica;fontSize=8;fontColor=#808080;endArrow=none;endFill=0;" edge="1" parent="210" source="254" target="280">
                    <mxGeometry relative="1" as="geometry"/>
                </mxCell>
                <mxCell id="254" value="e&lt;sub style=&quot;&quot;&gt;&lt;font style=&quot;font-size: 8px;&quot;&gt;3&lt;/font&gt;&lt;/sub&gt;" style="ellipse;whiteSpace=wrap;html=1;aspect=fixed;fontSize=10;fillColor=none;strokeColor=#FF0000;fontColor=#808080;" vertex="1" parent="210">
                    <mxGeometry x="650" y="490" width="20" height="20" as="geometry"/>
                </mxCell>
                <mxCell id="257" value="" style="edgeStyle=none;shape=connector;rounded=0;html=1;labelBackgroundColor=default;strokeColor=#808080;fontFamily=Helvetica;fontSize=8;fontColor=#808080;endArrow=none;endFill=0;" edge="1" parent="210" source="231" target="256">
                    <mxGeometry relative="1" as="geometry">
                        <mxPoint x="669.6533905029958" y="457.39000923437516" as="sourcePoint"/>
                        <mxPoint x="760.3441563869757" y="432.6009006365049" as="targetPoint"/>
                    </mxGeometry>
                </mxCell>
                <mxCell id="286" style="edgeStyle=none;shape=connector;rounded=0;html=1;labelBackgroundColor=default;strokeColor=#808080;fontFamily=Helvetica;fontSize=8;fontColor=#808080;endArrow=none;endFill=0;" edge="1" parent="210" source="256" target="277">
                    <mxGeometry relative="1" as="geometry"/>
                </mxCell>
                <mxCell id="287" style="edgeStyle=none;shape=connector;rounded=0;html=1;labelBackgroundColor=default;strokeColor=#808080;fontFamily=Helvetica;fontSize=8;fontColor=#808080;endArrow=none;endFill=0;" edge="1" parent="210" source="256" target="279">
                    <mxGeometry relative="1" as="geometry"/>
                </mxCell>
                <mxCell id="256" value="e&lt;sub style=&quot;&quot;&gt;&lt;font style=&quot;font-size: 8px;&quot;&gt;4&lt;/font&gt;&lt;/sub&gt;" style="ellipse;whiteSpace=wrap;html=1;aspect=fixed;fontSize=10;fillColor=none;strokeColor=#FF0000;fontColor=#808080;" vertex="1" parent="210">
                    <mxGeometry x="650" y="410" width="20" height="20" as="geometry"/>
                </mxCell>
                <mxCell id="282" style="edgeStyle=none;shape=connector;rounded=0;html=1;labelBackgroundColor=default;strokeColor=#808080;fontFamily=Helvetica;fontSize=8;fontColor=#808080;endArrow=none;endFill=0;" edge="1" parent="210" source="258" target="280">
                    <mxGeometry relative="1" as="geometry"/>
                </mxCell>
                <mxCell id="283" style="edgeStyle=none;shape=connector;rounded=0;html=1;labelBackgroundColor=default;strokeColor=#808080;fontFamily=Helvetica;fontSize=8;fontColor=#808080;endArrow=none;endFill=0;" edge="1" parent="210" source="258" target="279">
                    <mxGeometry relative="1" as="geometry"/>
                </mxCell>
                <mxCell id="258" value="e&lt;sub style=&quot;&quot;&gt;&lt;font style=&quot;font-size: 8px;&quot;&gt;5&lt;/font&gt;&lt;/sub&gt;" style="ellipse;whiteSpace=wrap;html=1;aspect=fixed;fontSize=10;fillColor=none;strokeColor=#FF0000;fontColor=#808080;" vertex="1" parent="210">
                    <mxGeometry x="610" y="450" width="20" height="20" as="geometry"/>
                </mxCell>
                <mxCell id="263" style="edgeStyle=none;shape=connector;rounded=0;html=1;labelBackgroundColor=default;strokeColor=#808080;fontFamily=Helvetica;fontSize=8;fontColor=#808080;endArrow=none;endFill=0;" edge="1" parent="210" source="261" target="226">
                    <mxGeometry relative="1" as="geometry"/>
                </mxCell>
                <mxCell id="261" value="v&lt;sub style=&quot;&quot;&gt;&lt;font style=&quot;font-size: 8px;&quot;&gt;0&lt;/font&gt;&lt;/sub&gt;" style="ellipse;whiteSpace=wrap;html=1;aspect=fixed;fontSize=10;fillColor=none;strokeColor=#808080;fontColor=#808080;" vertex="1" parent="210">
                    <mxGeometry x="450" y="450" width="20" height="20" as="geometry"/>
                </mxCell>
                <mxCell id="262" value="v&lt;sub style=&quot;&quot;&gt;&lt;font style=&quot;font-size: 8px;&quot;&gt;1&lt;/font&gt;&lt;/sub&gt;" style="ellipse;whiteSpace=wrap;html=1;aspect=fixed;fontSize=10;fillColor=none;strokeColor=#808080;fontColor=#808080;" vertex="1" parent="210">
                    <mxGeometry x="530" y="490" width="20" height="20" as="geometry"/>
                </mxCell>
                <mxCell id="268" value="v&lt;sub style=&quot;&quot;&gt;&lt;font style=&quot;font-size: 8px;&quot;&gt;2&lt;/font&gt;&lt;/sub&gt;" style="ellipse;whiteSpace=wrap;html=1;aspect=fixed;fontSize=10;fillColor=none;strokeColor=#808080;fontColor=#808080;" vertex="1" parent="210">
                    <mxGeometry x="530" y="410" width="20" height="20" as="geometry"/>
                </mxCell>
                <mxCell id="278" style="edgeStyle=none;shape=connector;rounded=0;html=1;labelBackgroundColor=default;strokeColor=#808080;fontFamily=Helvetica;fontSize=8;fontColor=#808080;endArrow=none;endFill=0;" edge="1" parent="210" source="277" target="239">
                    <mxGeometry relative="1" as="geometry"/>
                </mxCell>
                <mxCell id="277" value="v&lt;sub style=&quot;&quot;&gt;&lt;font style=&quot;font-size: 8px;&quot;&gt;3&lt;/font&gt;&lt;/sub&gt;" style="ellipse;whiteSpace=wrap;html=1;aspect=fixed;fontSize=10;fillColor=none;strokeColor=#808080;fontColor=#808080;" vertex="1" parent="210">
                    <mxGeometry x="690" y="450" width="20" height="20" as="geometry"/>
                </mxCell>
                <mxCell id="279" value="v&lt;sub style=&quot;&quot;&gt;&lt;font style=&quot;font-size: 8px;&quot;&gt;4&lt;/font&gt;&lt;/sub&gt;" style="ellipse;whiteSpace=wrap;html=1;aspect=fixed;fontSize=10;fillColor=none;strokeColor=#808080;fontColor=#808080;" vertex="1" parent="210">
                    <mxGeometry x="610" y="410" width="20" height="20" as="geometry"/>
                </mxCell>
                <mxCell id="280" value="v&lt;sub style=&quot;&quot;&gt;&lt;font style=&quot;font-size: 8px;&quot;&gt;5&lt;/font&gt;&lt;/sub&gt;" style="ellipse;whiteSpace=wrap;html=1;aspect=fixed;fontSize=10;fillColor=none;strokeColor=#808080;fontColor=#808080;" vertex="1" parent="210">
                    <mxGeometry x="610" y="490" width="20" height="20" as="geometry"/>
                </mxCell>
            </root>
        </mxGraphModel>
    </diagram>
</mxfile>